<svg width="50" height="13" viewBox="0 0 50 13" fill="none" xmlns="http://www.w3.org/2000/svg">
<path d="M5 0.585938V12H3.11719V2.82031L0.328125 3.76562V2.21094L4.77344 0.585938H5ZM16.0472 5.35938V7.21875C16.0472 8.10938 15.9586 8.86979 15.7816 9.5C15.6097 10.125 15.3597 10.6328 15.0316 11.0234C14.7034 11.4141 14.3102 11.7005 13.8519 11.8828C13.3988 12.0651 12.8909 12.1562 12.3284 12.1562C11.8805 12.1562 11.4639 12.099 11.0784 11.9844C10.6982 11.8698 10.3545 11.6901 10.0472 11.4453C9.7399 11.2005 9.47688 10.8854 9.25813 10.5C9.04458 10.1094 8.87792 9.64323 8.75813 9.10156C8.64354 8.5599 8.58625 7.93229 8.58625 7.21875V5.35938C8.58625 4.46354 8.67479 3.70833 8.85188 3.09375C9.02896 2.47396 9.28156 1.97135 9.60969 1.58594C9.93781 1.19531 10.3284 0.911458 10.7816 0.734375C11.2399 0.557292 11.7503 0.46875 12.3128 0.46875C12.7659 0.46875 13.1826 0.526042 13.5628 0.640625C13.9482 0.75 14.292 0.924479 14.5941 1.16406C14.9014 1.40365 15.1618 1.71615 15.3753 2.10156C15.5941 2.48177 15.7607 2.94271 15.8753 3.48438C15.9899 4.02083 16.0472 4.64583 16.0472 5.35938ZM14.1644 7.48438V5.07812C14.1644 4.625 14.1383 4.22656 14.0863 3.88281C14.0342 3.53385 13.956 3.23958 13.8519 3C13.7529 2.75521 13.6279 2.55729 13.4769 2.40625C13.3258 2.25 13.154 2.13802 12.9613 2.07031C12.7685 1.9974 12.5524 1.96094 12.3128 1.96094C12.0211 1.96094 11.7607 2.01823 11.5316 2.13281C11.3024 2.24219 11.1097 2.41927 10.9534 2.66406C10.7972 2.90885 10.6774 3.23177 10.5941 3.63281C10.5159 4.02865 10.4769 4.51042 10.4769 5.07812V7.48438C10.4769 7.94271 10.5029 8.34635 10.555 8.69531C10.6071 9.04427 10.6852 9.34375 10.7894 9.59375C10.8935 9.83854 11.0185 10.0417 11.1644 10.2031C11.3154 10.3594 11.4873 10.474 11.68 10.5469C11.8779 10.6198 12.0941 10.6562 12.3284 10.6562C12.6253 10.6562 12.8883 10.599 13.1175 10.4844C13.3467 10.3698 13.5394 10.1875 13.6956 9.9375C13.8519 9.68229 13.9691 9.35156 14.0472 8.94531C14.1253 8.53906 14.1644 8.05208 14.1644 7.48438ZM25.7978 2.14062L22.3994 12H20.3447L24.6259 0.625H25.9384L25.7978 2.14062ZM28.6416 12L25.2353 2.14062L25.0869 0.625H26.4072L30.7041 12H28.6416ZM28.4775 7.78125V9.33594H22.29V7.78125H28.4775ZM37.8997 0.625H39.8528V8.22656C39.8528 9.09115 39.6653 9.8151 39.2903 10.3984C38.9153 10.9818 38.4049 11.4219 37.7591 11.7188C37.1184 12.0104 36.4023 12.1562 35.6106 12.1562C34.7929 12.1562 34.0637 12.0104 33.4231 11.7188C32.7825 11.4219 32.2773 10.9818 31.9075 10.3984C31.5429 9.8151 31.3606 9.09115 31.3606 8.22656V0.625H33.3137V8.22656C33.3137 8.77344 33.4075 9.22396 33.595 9.57812C33.7825 9.92708 34.0481 10.1849 34.3919 10.3516C34.7356 10.5182 35.1419 10.6016 35.6106 10.6016C36.0794 10.6016 36.483 10.5182 36.8216 10.3516C37.1653 10.1849 37.4309 9.92708 37.6184 9.57812C37.8059 9.22396 37.8997 8.77344 37.8997 8.22656V0.625ZM46.3453 0.625V12H44.4V0.625H46.3453ZM49.9156 0.625V2.1875H40.8609V0.625H49.9156Z" fill="white"/>
</svg>
