<svg width="68" height="32" viewBox="0 0 68 32" fill="none" xmlns="http://www.w3.org/2000/svg">
<rect width="68" height="32" rx="16" fill="#71A894"/>
<path d="M16.6953 16.9453V18.4453H8.49219L8.42969 17.3125L13.3359 9.625H14.8438L13.2109 12.4219L10.3906 16.9453H16.6953ZM15.2734 9.625V21H13.3906V9.625H15.2734ZM25.0472 14.3594V16.2188C25.0472 17.1094 24.9586 17.8698 24.7816 18.5C24.6097 19.125 24.3597 19.6328 24.0316 20.0234C23.7034 20.4141 23.3102 20.7005 22.8519 20.8828C22.3988 21.0651 21.8909 21.1562 21.3284 21.1562C20.8805 21.1562 20.4639 21.099 20.0784 20.9844C19.6982 20.8698 19.3545 20.6901 19.0472 20.4453C18.7399 20.2005 18.4769 19.8854 18.2581 19.5C18.0446 19.1094 17.8779 18.6432 17.7581 18.1016C17.6435 17.5599 17.5863 16.9323 17.5863 16.2188V14.3594C17.5863 13.4635 17.6748 12.7083 17.8519 12.0938C18.029 11.474 18.2816 10.9714 18.6097 10.5859C18.9378 10.1953 19.3284 9.91146 19.7816 9.73438C20.2399 9.55729 20.7503 9.46875 21.3128 9.46875C21.7659 9.46875 22.1826 9.52604 22.5628 9.64062C22.9482 9.75 23.292 9.92448 23.5941 10.1641C23.9014 10.4036 24.1618 10.7161 24.3753 11.1016C24.5941 11.4818 24.7607 11.9427 24.8753 12.4844C24.9899 13.0208 25.0472 13.6458 25.0472 14.3594ZM23.1644 16.4844V14.0781C23.1644 13.625 23.1383 13.2266 23.0863 12.8828C23.0342 12.5339 22.956 12.2396 22.8519 12C22.7529 11.7552 22.6279 11.5573 22.4769 11.4062C22.3258 11.25 22.154 11.138 21.9613 11.0703C21.7685 10.9974 21.5524 10.9609 21.3128 10.9609C21.0211 10.9609 20.7607 11.0182 20.5316 11.1328C20.3024 11.2422 20.1097 11.4193 19.9534 11.6641C19.7972 11.9089 19.6774 12.2318 19.5941 12.6328C19.5159 13.0286 19.4769 13.5104 19.4769 14.0781V16.4844C19.4769 16.9427 19.5029 17.3464 19.555 17.6953C19.6071 18.0443 19.6852 18.3438 19.7894 18.5938C19.8935 18.8385 20.0185 19.0417 20.1644 19.2031C20.3154 19.3594 20.4873 19.474 20.68 19.5469C20.8779 19.6198 21.0941 19.6562 21.3284 19.6562C21.6253 19.6562 21.8883 19.599 22.1175 19.4844C22.3467 19.3698 22.5394 19.1875 22.6956 18.9375C22.8519 18.6823 22.9691 18.3516 23.0472 17.9453C23.1253 17.5391 23.1644 17.0521 23.1644 16.4844ZM34.7978 11.1406L31.3994 21H29.3447L33.6259 9.625H34.9384L34.7978 11.1406ZM37.6416 21L34.2353 11.1406L34.0869 9.625H35.4072L39.7041 21H37.6416ZM37.4775 16.7812V18.3359H31.29V16.7812H37.4775ZM46.8997 9.625H48.8528V17.2266C48.8528 18.0911 48.6653 18.8151 48.2903 19.3984C47.9153 19.9818 47.4049 20.4219 46.7591 20.7188C46.1184 21.0104 45.4023 21.1562 44.6106 21.1562C43.7929 21.1562 43.0637 21.0104 42.4231 20.7188C41.7825 20.4219 41.2773 19.9818 40.9075 19.3984C40.5429 18.8151 40.3606 18.0911 40.3606 17.2266V9.625H42.3137V17.2266C42.3137 17.7734 42.4075 18.224 42.595 18.5781C42.7825 18.9271 43.0481 19.1849 43.3919 19.3516C43.7356 19.5182 44.1419 19.6016 44.6106 19.6016C45.0794 19.6016 45.483 19.5182 45.8216 19.3516C46.1653 19.1849 46.4309 18.9271 46.6184 18.5781C46.8059 18.224 46.8997 17.7734 46.8997 17.2266V9.625ZM55.3453 9.625V21H53.4V9.625H55.3453ZM58.9156 9.625V11.1875H49.8609V9.625H58.9156Z" fill="white"/>
</svg>
